<svg xmlns="http://www.w3.org/2000/svg" version="1.1" xmlns:xlink="http://www.w3.org/1999/xlink" xmlns:svgjs="http://svgjs.dev/svgjs" width="1000" height="242" viewBox="0 0 1000 242"><g transform="matrix(1,0,0,1,-0.6056348047761162,0.00034898915741621295)"><svg viewBox="0 0 396 96" data-background-color="#ffffff" preserveAspectRatio="xMidYMid meet" height="242" width="1000" xmlns="http://www.w3.org/2000/svg" xmlns:xlink="http://www.w3.org/1999/xlink"><g id="tight-bounds" transform="matrix(1,0,0,1,0.24008861730862918,-0.00013844197980006356)"><svg viewBox="0 0 395.52 96.00027688395963" height="96.00027688395963" width="395.52"><g><svg viewBox="0 0 395.52 96.00027688395963" height="96.00027688395963" width="395.52"><g><svg viewBox="0 0 395.52 96.00027688395963" height="96.00027688395963" width="395.52"><g id="textblocktransform"><svg viewBox="0 0 395.52 96.00027688395963" height="96.00027688395963" width="395.52" id="textblock"><g><svg viewBox="0 0 395.52 77.48457270040416" height="77.48457270040416" width="395.52"><path d="M394.594 16.619C392.735 8.576 387.435 6.34 387.435 6.34 371.165-1.944 350.86-0.158 332.619 1.032 300.414 1.08 268.339 2.85 236.208 3.799 168.767 3.943 100.749 1.563 33.643 7.434 27.339 9.236-6.54 7.788 1.121 17.648 3.129 21.75 10.456 26.303 10.232 30.067 11.236 30.726 12.631 29.214 13.226 30.163 15.309 32.721 18.711 31.514 21.501 33.026 17.614 37.064 20.403 40.426 23.062 43.949 18.377 44.866 12.371 44.431 9.675 47.471 9.396 49.675 7.89 49.257 6.235 49.16 5.026 49.096 2.59 49.337 2.999 50.029 4.394 52.394-1.594 53.761 2.162 56.077-0.422 58.587 3.948 60.758 3.353 63.477 3.278 64.024 3.687 64.49 4.338 64.619 7.22 65.311 3.018 66.662 3.464 68.126 33.029 78.131 65.104 71.214 95.394 75.814 103.259 72.597 97.346 76.957 100.489 76.281 102.943 75.493 104.728 78.758 107.499 76.908 107.927 76.377 107.276 75.123 108.8 75.364 109.6 75.493 110.307 75.461 110.418 74.721 110.586 73.611 109.117 74.302 108.726 73.723 112.947 70.796 111.906 77.761 115.866 77.471 115.68 76.619 114.528 75.396 116.889 75.557 119.232 74.335 119.306 73.321 121.389 76.072 121.463 76.667 121.835 77.085 122.43 77.375 128.938 74.383 135.409 78.436 142.233 77.085 146.417 75.605 150.433 77.89 154.672 77.327 156.16 76.876 157.666 76.072 159.098 77.423 176.632 77.713 195.319 76.506 211.943 77.471 256.364 75.67 303.835 78.211 350.674 75.831 361.719 74.914 373.192 73.611 383.958 72.565 383.958 72.565 392.679 69.702 392.679 56.833S394.538 45.573 394.817 35.327C395.096 25.08 396.398 24.662 394.538 16.619Z" opacity="1" fill="#6936f5" data-fill-palette-color="tertiary"></path><g transform="matrix(1,0,0,1,55.76832,26.068561146666667)"><svg width="283.98335999999995" viewBox="1.6500000953674316 -35 401.6199951171875 35.849998474121094" height="25.34745040707083" data-palette-color="#ffffff"><path d="M13.35 0L13.35-31.4 1.65-31.4 1.65-34.2 28.05-34.2 28.05-31.4 16.35-31.4 16.35 0 13.35 0ZM34.65 0L34.65-34.2 37.65-34.2 37.65-19.2 56.1-19.2 56.1-34.2 59.1-34.2 59.1 0 56.1 0 56.1-16.4 37.65-16.4 37.65 0 34.65 0ZM69 0L69-34.2 90.95-34.2 90.95-31.4 72-31.4 72-19.5 85.95-19.5 85.95-16.7 72-16.7 72-2.8 91.95-2.8 91.95 0 69 0ZM112.99-34.65L113.89-34.65 128.39-16.15 143.19-34.65 144.09-34.65 144.09 0 141.09 0 141.09-23.5Q141.09-25 141.49-28.4L141.49-28.4Q138.84-24.7 134.94-19.8 131.04-14.9 128.44-12.15L128.44-12.15Q122.19-19.2 117.99-24.3L117.99-24.3Q117.24-25.25 116.69-26.05 116.14-26.85 115.59-27.85L115.59-27.85Q115.59-28 115.79-26.5L115.79-26.5Q115.99-25 115.99-24.2L115.99-24.2 115.99 0 112.99 0 112.99-34.65ZM169.19 0.85Q164.34 0.85 160.41-1.43 156.49-3.7 154.21-7.68 151.94-11.65 151.94-16.5L151.94-16.5 151.94-17.45Q151.94-22.35 154.19-26.38 156.44-30.4 160.34-32.7 164.24-35 168.99-35L168.99-35Q173.79-35 177.69-32.7 181.59-30.4 183.84-26.38 186.09-22.35 186.09-17.45L186.09-17.45 186.09-16.5Q186.09-11.55 183.89-7.6 181.69-3.65 177.84-1.4 173.99 0.85 169.19 0.85L169.19 0.85ZM169.04-1.95Q172.99-1.95 176.19-3.85 179.39-5.75 181.24-9.08 183.09-12.4 183.09-16.5L183.09-16.5 183.09-17.45Q183.09-21.6 181.21-24.98 179.34-28.35 176.11-30.28 172.89-32.2 168.94-32.2L168.94-32.2Q165.04-32.2 161.84-30.25 158.64-28.3 156.79-24.93 154.94-21.55 154.94-17.45L154.94-17.45 154.94-16.5Q154.94-12.4 156.79-9.08 158.64-5.75 161.86-3.85 165.09-1.95 169.04-1.95L169.04-1.95ZM189.89-30.5Q189.74-31 189.31-31.23 188.89-31.45 188.24-31.55L188.24-31.55 188.24-34.5Q189.99-34.5 191.11-33.5 192.24-32.5 192.64-31.25L192.64-31.25 202.14-4.3 212.49-34.25 215.54-34.25 203.64 0 200.69 0 189.89-30.5ZM222.08 0L222.08-34.2 225.13-34.2 225.13 0 222.08 0ZM235.08 0L235.08-34.2 257.03-34.2 257.03-31.4 238.08-31.4 238.08-19.5 252.03-19.5 252.03-16.7 238.08-16.7 238.08-2.8 258.03-2.8 258.03 0 235.08 0ZM296.48-17.9Q298.93-16.4 300.33-14.2 301.73-12 301.73-9.25L301.73-9.25Q301.73-6.15 300-3.7 298.28-1.25 295.03-0.2L295.03-0.2Q292.88 0.5 289.18 0.5L289.18 0.5Q283.88 0.5 281.68 0.25L281.68 0.25 279.08-0.05 279.08-34.75 290.08-34.75Q292.38-34.75 294.18-34.1L294.18-34.1Q297.03-33.1 298.6-30.9 300.18-28.7 300.18-25.7L300.18-25.7Q300.18-23.4 299.25-21.65 298.33-19.9 296.38-18.95L296.38-18.95Q295.88-18.7 294.88-18.4L294.88-18.4Q296.13-18.1 296.48-17.9L296.48-17.9ZM290.78-31.95L282.08-31.95 282.08-19.5 290.03-19.5Q293.23-19.5 295.2-21.15 297.18-22.8 297.18-25.9L297.18-25.9Q297.18-28.65 295.5-30.18 293.83-31.7 290.78-31.95L290.78-31.95ZM289.68-2.25Q293.93-2.25 296.33-4.05 298.73-5.85 298.73-9.25L298.73-9.25Q298.73-12.55 296.53-14.65 294.33-16.75 290.38-16.75L290.38-16.75 282.08-16.75 282.08-2.5 286.33-2.35 289.68-2.25ZM309.52 0L309.52-34.2 312.52-34.2 312.52-2.8 329.87-2.8 329.87 0 309.52 0ZM349.62 0.85Q344.77 0.85 340.85-1.43 336.92-3.7 334.65-7.68 332.37-11.65 332.37-16.5L332.37-16.5 332.37-17.45Q332.37-22.35 334.62-26.38 336.87-30.4 340.77-32.7 344.67-35 349.42-35L349.42-35Q354.22-35 358.12-32.7 362.02-30.4 364.27-26.38 366.52-22.35 366.52-17.45L366.52-17.45 366.52-16.5Q366.52-11.55 364.32-7.6 362.12-3.65 358.27-1.4 354.42 0.85 349.62 0.85L349.62 0.85ZM349.47-1.95Q353.42-1.95 356.62-3.85 359.82-5.75 361.67-9.08 363.52-12.4 363.52-16.5L363.52-16.5 363.52-17.45Q363.52-21.6 361.65-24.98 359.77-28.35 356.55-30.28 353.32-32.2 349.37-32.2L349.37-32.2Q345.47-32.2 342.27-30.25 339.07-28.3 337.22-24.93 335.37-21.55 335.37-17.45L335.37-17.45 335.37-16.5Q335.37-12.4 337.22-9.08 339.07-5.75 342.3-3.85 345.52-1.95 349.47-1.95L349.47-1.95ZM403.27-17.6L403.27-13.8Q403.27-9.6 401.29-6.33 399.32-3.05 395.99-1.25 392.67 0.55 388.77 0.55L388.77 0.55Q383.67 0.55 379.94-1.58 376.22-3.7 374.24-7.58 372.27-11.45 372.27-16.5L372.27-16.5Q372.27-21.6 374.54-25.8 376.82-30 380.79-32.43 384.77-34.85 389.57-34.85L389.57-34.85Q392.32-34.85 394.92-33.93 397.52-33 399.17-31.3 400.82-29.6 400.82-27.3L400.82-27.3 398.12-27.25Q398.12-28.8 396.74-29.88 395.37-30.95 393.34-31.5 391.32-32.05 389.47-32.05L389.47-32.05Q385.47-32.05 382.22-29.95 378.97-27.85 377.12-24.3 375.27-20.75 375.27-16.5L375.27-16.5Q375.27-12.25 376.87-9.03 378.47-5.8 381.57-4.03 384.67-2.25 388.97-2.25L388.97-2.25Q391.87-2.25 394.52-3.7 397.17-5.15 398.79-7.65 400.42-10.15 400.42-13.2L400.42-13.2 400.42-14.8 388.27-14.8 388.27-17.6 403.27-17.6Z" opacity="1" transform="matrix(1,0,0,1,0,0)" fill="#ffffff" class="wordmark-text-0" data-fill-palette-color="quaternary" id="text-0"></path></svg></g></svg></g><g transform="matrix(1,0,0,1,127.22733586017854,83.46849740270382)"><svg viewBox="0 0 141.0653282796429 12.531779481255821" height="12.531779481255821" width="141.0653282796429"><g transform="matrix(1,0,0,1,0,0)"><svg width="141.0653282796429" viewBox="4.599999904632568 -36 510.9999694824219 45.400001525878906" height="12.531779481255821" data-palette-color="#6936f5"><path d="M24.9-34.3L24.45-31.9 7.3-31.9 7.3-18.7 21.95-18.7 21.95-16.3 7.3-16.3 7.3 0 4.6 0 4.6-34.3 24.9-34.3ZM40.2 0.5Q37.05 0.5 34.6-1.03 32.15-2.55 30.77-5.45 29.4-8.35 29.4-12.4L29.4-12.4 29.4-13.15Q29.4-17.2 30.77-20.1 32.15-23 34.6-24.53 37.05-26.05 40.2-26.05L40.2-26.05Q43.35-26.05 45.8-24.53 48.25-23 49.62-20.1 51-17.2 51-13.15L51-13.15 51-12.4Q51-8.35 49.62-5.45 48.25-2.55 45.8-1.03 43.35 0.5 40.2 0.5L40.2 0.5ZM40.2-1.8Q43.85-1.8 46.15-4.45 48.45-7.1 48.45-12.1L48.45-12.1 48.45-13.45Q48.45-18.45 46.15-21.1 43.85-23.75 40.2-23.75L40.2-23.75Q36.55-23.75 34.25-21.1 31.95-18.45 31.95-13.45L31.95-13.45 31.95-12.1Q31.95-7.1 34.25-4.45 36.55-1.8 40.2-1.8L40.2-1.8ZM74.9-16.4L74.9-17.2Q74.9-19.7 73.45-21.73 72-23.75 68.65-23.75L68.65-23.75Q66.34-23.75 64.9-22.53 63.45-21.3 62.82-19.55 62.2-17.8 62.2-16.2L62.2-16.2 62.2 0 59.65 0 59.65-25.55 61.35-25.55 61.9-21.75Q61.9-21.95 62.67-23.05 63.45-24.15 65.07-25.1 66.7-26.05 69.15-26.05L69.15-26.05Q73.09-26.05 75.22-23.63 77.34-21.2 77.34-17.6L77.34-17.6Q77.34-17.1 77.3-16.8 77.25-16.5 77.25-16.4L77.25-16.4 74.9-16.4ZM120.34 0L116.79-8.5 98.69-8.5 95.19 0 92.39 0 106.59-34.3 109.09-34.3 123.29 0 120.34 0ZM107.64-30.6L99.69-10.95 115.79-10.95 107.84-30.6 107.64-30.6ZM131.69 0L129.14 0 129.14-36 131.69-36 131.69 0ZM145.09 0L142.54 0 142.54-36 145.09-36 145.09 0ZM190.83-31.9L179.23-31.9 179.23 0 176.63 0 176.63-31.9 165.03-31.9 165.03-34.3 190.83-34.3 190.83-31.9ZM214.43 0L214.43-15.7Q214.43-19.75 212.55-21.75 210.68-23.75 207.23-23.75L207.23-23.75Q205.03-23.75 203.23-22.7 201.43-21.65 200.4-19.8 199.38-17.95 199.38-15.7L199.38-15.7 199.38 0 196.83 0 196.83-36 199.38-36 199.38-21.95Q200.63-23.9 202.88-24.98 205.13-26.05 207.48-26.05L207.48-26.05Q211.68-26.05 214.33-23.63 216.98-21.2 216.98-16.45L216.98-16.45 216.98 0 214.43 0ZM226.38-33.3L226.38-36 229.33-36 229.33-33.3 226.38-33.3ZM229.13 0L226.58 0 226.58-25.55 229.13-25.55 229.13 0ZM257.07 0L257.07-15.7Q257.07-19.75 255.2-21.75 253.32-23.75 249.87-23.75L249.87-23.75Q247.67-23.75 245.87-22.7 244.07-21.65 243.05-19.8 242.02-17.95 242.02-15.7L242.02-15.7 242.02 0 239.47 0 239.47-25.55 241.17-25.55 241.72-21.75Q243.02-23.75 245.3-24.9 247.57-26.05 250.12-26.05L250.12-26.05Q254.32-26.05 256.95-23.63 259.57-21.2 259.57-16.45L259.57-16.45 259.57 0 257.07 0ZM285.17-3.35Q287.77-3.35 289.42-1.65 291.07 0.05 291.07 2.6L291.07 2.6Q291.07 4.5 290.15 6.05 289.22 7.6 287.6 8.5 285.97 9.4 283.92 9.4L283.92 9.4 273.07 9.4Q271.32 9.4 269.87 8.5 268.42 7.6 267.6 6.15 266.77 4.7 266.77 3.05L266.77 3.05Q266.77 1.2 267.77-0.43 268.77-2.05 270.47-2.75L270.47-2.75Q268.22-4.1 268.22-6.75L268.22-6.75Q268.22-8.5 269.3-9.78 270.37-11.05 272.27-11.8L272.27-11.8Q270.67-12.95 269.77-14.55 268.87-16.15 268.87-18L268.87-18Q268.87-21.55 271.32-23.8 273.77-26.05 278.62-26.05L278.62-26.05Q281.87-26.05 284.17-24.95L284.17-24.95Q286.02-25.45 287.22-26.8 288.42-28.15 288.67-30.15L288.67-30.15 291.07-30.15Q291.07-27.95 289.7-26.05 288.32-24.15 286.12-23.85L286.12-23.85 286.07-23.65Q287.17-22.7 287.77-21.23 288.37-19.75 288.37-18L288.37-18Q288.37-14.45 285.92-12.23 283.47-10 278.62-10L278.62-10 274.52-10Q272.92-10 271.85-9.1 270.77-8.2 270.77-6.65L270.77-6.65Q270.77-5.1 271.82-4.23 272.87-3.35 274.52-3.35L274.52-3.35 285.17-3.35ZM285.82-18Q285.82-20.45 283.9-22.1 281.97-23.75 278.62-23.75L278.62-23.75Q275.27-23.75 273.35-22.1 271.42-20.45 271.42-18L271.42-18Q271.42-15.55 273.35-13.9 275.27-12.25 278.62-12.25L278.62-12.25Q281.97-12.25 283.9-13.9 285.82-15.55 285.82-18L285.82-18ZM284.07 7.1Q285.87 7.1 287.2 5.83 288.52 4.55 288.52 2.75L288.52 2.75Q288.52 1.3 287.47 0.2 286.42-0.9 284.97-0.9L284.97-0.9 273.27-0.9Q271.62-0.9 270.45 0.28 269.27 1.45 269.27 3.1L269.27 3.1Q269.27 4.75 270.45 5.93 271.62 7.1 273.27 7.1L273.27 7.1 284.07 7.1ZM298.17-7.85Q298.12-7.6 298.12-7.15L298.12-7.15Q298.12-4.6 300.34-3.2 302.57-1.8 306.42-1.8L306.42-1.8Q309.87-1.8 311.77-3.18 313.67-4.55 313.67-6.8L313.67-6.8Q313.67-8.55 312.59-9.55 311.52-10.55 309.94-11.08 308.37-11.6 305.72-12.1L305.72-12.1Q302.67-12.7 300.82-13.33 298.97-13.95 297.67-15.3 296.37-16.65 296.37-19.05L296.37-19.05Q296.37-22.15 298.87-24.1 301.37-26.05 306.27-26.05L306.27-26.05Q309.47-26.05 311.57-25 313.67-23.95 314.64-22.38 315.62-20.8 315.62-19.15L315.62-19.15 315.57-18.45 313.07-18.45 313.07-19.1Q313.07-20.7 311.64-22.23 310.22-23.75 305.82-23.75L305.82-23.75Q301.57-23.75 300.24-22.3 298.92-20.85 298.92-19.15L298.92-19.15Q298.92-17.7 299.92-16.8 300.92-15.9 302.42-15.43 303.92-14.95 306.57-14.4L306.57-14.4Q309.62-13.75 311.57-13.1 313.52-12.45 314.87-11.05 316.22-9.65 316.22-7.3L316.22-7.3Q316.22-3.2 313.39-1.35 310.57 0.5 305.77 0.5L305.77 0.5Q302.12 0.5 299.84-0.65 297.57-1.8 296.59-3.45 295.62-5.1 295.62-6.6L295.62-6.6Q295.62-7.2 295.64-7.5 295.67-7.8 295.67-7.85L295.67-7.85 298.17-7.85ZM360.96-12.55Q360.96-5.5 357.41-2.5 353.86 0.5 348.26 0.5L348.26 0.5Q344.26 0.5 341.44-0.95 338.61-2.4 336.99-6.15 335.36-9.9 335.36-16.5L335.36-16.5 335.36-17.8Q335.36-24.4 336.99-28.15 338.61-31.9 341.44-33.35 344.26-34.8 348.26-34.8L348.26-34.8Q353.91-34.8 357.44-31.85 360.96-28.9 360.96-21.7L360.96-21.7 358.31-21.7Q358.31-27.65 355.56-30.03 352.81-32.4 348.26-32.4L348.26-32.4Q343.36-32.4 340.71-29.38 338.06-26.35 338.06-18.4L338.06-18.4 338.06-15.9Q338.06-7.95 340.71-4.93 343.36-1.9 348.26-1.9L348.26-1.9Q358.31-1.9 358.31-12.55L358.31-12.55 360.96-12.55ZM369.46-33.3L369.46-36 372.41-36 372.41-33.3 369.46-33.3ZM372.21 0L369.66 0 369.66-25.55 372.21-25.55 372.21 0ZM400.16 0L400.16-15.7Q400.16-19.75 398.28-21.75 396.41-23.75 392.96-23.75L392.96-23.75Q390.76-23.75 388.96-22.7 387.16-21.65 386.13-19.8 385.11-17.95 385.11-15.7L385.11-15.7 385.11 0 382.56 0 382.56-25.55 384.26-25.55 384.81-21.75Q386.11-23.75 388.38-24.9 390.66-26.05 393.21-26.05L393.21-26.05Q397.41-26.05 400.03-23.63 402.66-21.2 402.66-16.45L402.66-16.45 402.66 0 400.16 0ZM431.25-9.45Q431.25-6.35 429.93-4.1 428.6-1.85 426.35-0.68 424.1 0.5 421.3 0.5L421.3 0.5Q418.15 0.5 415.73-1.03 413.3-2.55 411.95-5.45 410.6-8.35 410.6-12.4L410.6-12.4 410.6-13.15Q410.6-17.2 411.93-20.1 413.25-23 415.68-24.53 418.1-26.05 421.25-26.05L421.25-26.05Q424.1-26.05 426.38-24.83 428.65-23.6 429.95-21.28 431.25-18.95 431.25-15.7L431.25-15.7 431.25-12.5 413.15-12.5 413.15-12.1Q413.15-7.1 415.43-4.45 417.7-1.8 421.3-1.8L421.3-1.8Q424.5-1.8 426.63-3.75 428.75-5.7 428.75-9.45L428.75-9.45 431.25-9.45ZM421.25-23.75Q417.9-23.75 415.7-21.45 413.5-19.15 413.2-14.8L413.2-14.8 428.75-14.8 428.75-15.7Q428.75-19.6 426.63-21.68 424.5-23.75 421.25-23.75L421.25-23.75ZM465.15-26.05Q468.95-26.05 471.35-23.63 473.75-21.2 473.75-16.45L473.75-16.45 473.75 0 471.2 0 471.2-15.7Q471.2-23.75 464.95-23.75L464.95-23.75Q461.95-23.75 460.05-21.45 458.15-19.15 458.15-15.7L458.15-15.7 458.15 0 455.6 0 455.6-15.7Q455.6-23.75 449.35-23.75L449.35-23.75Q446.35-23.75 444.45-21.45 442.55-19.15 442.55-15.7L442.55-15.7 442.55 0 440 0 440-25.55 441.7-25.55 442.3-21.75Q443.4-23.75 445.35-24.9 447.3-26.05 449.55-26.05L449.55-26.05Q452.1-26.05 454.13-24.95 456.15-23.85 457.25-21.7L457.25-21.7Q458.35-23.55 460.43-24.8 462.5-26.05 465.15-26.05L465.15-26.05ZM501.55-3.45Q501.55-1.8 502.9-1.8L502.9-1.8Q504.05-1.8 505.4-2.6L505.4-2.6 505.4-0.45Q504 0.5 502.2 0.5L502.2 0.5Q500.4 0.5 499.7-0.83 499-2.15 499-4.45L499-4.45Q497.45-1.9 495.13-0.7 492.8 0.5 489.65 0.5L489.65 0.5Q486.1 0.5 483.85-1.13 481.6-2.75 481.6-6.65L481.6-6.65Q481.6-10.2 483.72-11.98 485.85-13.75 489.47-14.28 493.1-14.8 499-14.8L499-14.8 499-18Q499-21.2 497.47-22.48 495.95-23.75 492.35-23.75L492.35-23.75Q489.05-23.75 487.05-22.48 485.05-21.2 485.05-18.55L485.05-18.55 485.05-17.75 482.6-17.75Q482.5-18.55 482.5-19.05L482.5-19.05Q482.5-22.3 485.27-24.18 488.05-26.05 492.35-26.05L492.35-26.05Q497-26.05 499.27-24.2 501.55-22.35 501.55-18.5L501.55-18.5 501.55-3.45ZM499-12.5Q493.7-12.5 490.68-12.15 487.65-11.8 485.9-10.53 484.15-9.25 484.15-6.6L484.15-6.6Q484.15-4.1 485.57-2.95 487-1.8 490.15-1.8L490.15-1.8Q492.4-1.8 494.43-2.8 496.45-3.8 497.72-5.83 499-7.85 499-10.8L499-10.8 499-12.5ZM512.4-34.3L515.6-34.3 515-7.05 512.95-7.05 512.4-34.3ZM512.35 0L512.35-3.45 515.6-3.45 515.6 0 512.35 0Z" opacity="1" transform="matrix(1,0,0,1,0,0)" fill="#6936f5" class="slogan-text-1" data-fill-palette-color="secondary" id="text-1"></path></svg></g></svg></g></svg></g></svg></g><g></g></svg></g><defs></defs></svg><rect width="395.52" height="96.00027688395963" fill="none" stroke="none" visibility="hidden"></rect></g></svg></g></svg>